<svg xmlns="http://www.w3.org/2000/svg" xmlns:xlink="http://www.w3.org/1999/xlink" style="vertical-align:-8.88ex" width="39.539ex" height="18.884ex" viewBox="0 -4307.5 17023.5 8130.7"><defs><path id="m" stroke-width="1" d="M213 578l-13-5q-14-5-40-10t-58-7H83v46h19q47 2 87 15t56 24 28 22q2 3 12 3 9 0 17-6V361l1-300q7-7 12-9t24-4 62-2h26V0h-11q-21 3-159 3-136 0-157-3H88v46h64q16 0 25 1t16 3 8 2 6 5 6 4v517z"/><path id="a" stroke-width="1" d="M50 252q0 115 67 221t169 168 204 63q90 0 143-51 9-10 15-17t8-10l1-3q3 0 27 26 7 6 15 14t16 16 10 11l15 15h6q14 0 14-7 0-4-32-137-36-139-36-140-2-5-5-6t-18-2h-16q-6 6-6 9 0 1 1 7t2 20 1 32q0 71-32 124t-109 54q-26 0-56-7t-72-24-83-56-73-93q-32-57-51-133t-19-124q0-114 76-164 48-34 118-34 91 0 162 68t94 148q4 13 6 15t16 2q20 0 20-9 0-5-1-9-29-107-124-184T319-22q-113 0-191 75T50 252z"/><path id="c" stroke-width="1" d="M94 250q0 69 10 131t23 107 37 88 38 67 42 52 33 34 25 21h17q14 0 14-9 0-3-17-21t-41-53-49-86-42-138-17-193 17-192 41-139 49-86 42-53 17-21q0-9-15-9h-16l-28 24q-94 85-137 212T94 250z"/><path id="d" stroke-width="1" d="M34 159q0 109 86 196t186 87q56 0 88-24t33-63q0-29-19-49t-48-21q-19 0-30 10t-11 30 11 34 22 21 14 6h1q0 2-6 6t-21 8-34 4q-30 0-57-14-21-9-43-31-44-44-64-124t-21-116q0-46 26-69 22-24 58-24h4q112 0 185 85 9 10 12 10 4 0 13-9t10-14-9-15-29-28-45-30-64-25-80-11q-75 0-121 48T34 159z"/><path id="e" stroke-width="1" d="M184 600q0 24 19 42t44 19q18 0 30-12t13-30q0-23-20-42t-44-20q-15 0-28 10t-14 33zM21 287q0 8 9 31t24 51 44 51 60 22q39 0 65-23t27-62q0-17-14-56t-40-105-42-113q-5-22-5-32 0-25 17-25 9 0 19 3t23 14 27 35 25 59q3 12 5 14t17 2q20 0 20-10 0-8-9-31t-25-51-45-50-62-22q-32 0-59 21T74 74q0 17 5 32t43 114q38 101 44 121t7 39q0 24-17 24h-2q-30 0-55-33t-38-84q-1-1-2-3t-1-3-2-2-3-1-4 0-8 0H27q-6 6-6 9z"/><path id="f" stroke-width="1" d="M297 596q0 31 21 48t43 17q17 0 28-10t14-28q0-28-19-47t-44-19q-18 0-30 10t-13 29zm-9-220q0 29-26 29-22 0-42-12t-35-31-24-37-17-32l-7-14q-2-1-16-1h-14q-6 6-6 8t4 13q21 49 59 92t88 50h8q7 0 12 1 24-1 44-10 25-14 38-31t13-53v-16l-49-199Q267-67 264-75q-18-50-70-89T75-204q-50 0-68 21t-19 46q0 27 19 46t46 20q17 0 29-10t13-31q0-36-32-55 6-1 14-1 34 0 62 28t43 66l11 42q11 43 26 104t32 125 27 111 11 57q0 7-1 11z"/><path id="g" stroke-width="1" d="M60 749l4 1h22l28-24q94-85 137-212t43-264q0-68-10-131T261 12t-37-88-38-67-41-51-32-33-23-19l-4-4H63q-3 0-5 3t-3 9q1 1 11 13Q221-64 221 250T66 725q-10 12-11 13 0 8 5 11z"/><path id="h" stroke-width="1" d="M21 287q1 6 3 16t12 38 20 47 33 37 46 17q36 0 60-18t30-34 6-21q0-2 1-2l11 11q61 64 139 64 54 0 87-27t34-79-38-157-38-127q0-26 17-26 6 0 9 1 29 5 52 38t35 80q2 8 20 8 20 0 20-8 0-1-4-15-8-29-22-57t-46-56-69-27q-47 0-68 27t-21 56q0 19 36 120t37 152q0 59-44 59h-5q-86 0-145-101l-7-12-33-134Q156 26 151 16q-13-27-43-27-13 0-21 6T76 7t-2 10q0 13 38 163t40 163q1 5 1 23 0 39-24 39-38 0-63-100-6-20-6-21-2-6-19-6H27q-6 6-6 9z"/><path id="i" stroke-width="1" d="M630 29q0-20-21-20-5 0-22 16t-94 93L389 222 284 117Q178 13 175 11q-4-2-7-2-8 0-14 6t-7 14q0 7 14 22t94 95l104 104-104 104q-81 81-94 95t-14 22q0 9 6 14t15 5q5 0 7-1 3-2 109-106l105-105 104 104q77 77 94 93t22 16q21 0 21-20 0-7-10-18t-98-98L418 250l104-105q84-84 96-97t12-19z"/><path id="b" stroke-width="1" d="M56 347q0 13 14 20h637q15-8 15-20 0-11-14-19l-318-1H72q-16 5-16 20zm0-194q0 15 16 20h636q14-10 14-20 0-13-15-20H70q-14 7-14 20z"/><path id="n" stroke-width="1" d="M109 429q-27 0-43 18t-16 44q0 71 53 123t132 52q91 0 152-56t62-145q0-43-20-82t-48-68-80-74q-36-31-100-92l-59-56 76-1q157 0 167 5 7 2 24 89v3h40v-3q-1-3-13-91T421 3V0H50v31q0 7 6 15t30 35q29 32 50 56 9 10 34 37t34 37 29 33 28 34 23 30 21 32 15 29 13 32 7 30 3 33q0 63-34 109t-97 46q-33 0-58-17t-35-33-10-19q0-1 5-1 18 0 37-14t19-46q0-25-16-42t-45-18z"/><path id="o" stroke-width="1" d="M78 60q0 24 17 42t43 18q24 0 42-16t19-43q0-25-17-43T139 0 96 17 78 60z"/><path id="j" stroke-width="1" d="M837 1154q6-6 6-9 0-4-25-39t-65-104-86-161-93-237-80-305q-77-383-77-908 0-32-1-38t-5-7q-2-1-45-1-67 0-69 1-5 2-5 11t-1 60q2 183 13 341t43 352 85 360 142 343 211 323q2 3 5 6t4 5 2 3 3 2 3 1 5 1 6 0h24z"/><path id="l" stroke-width="1" d="M843-635q0-3-6-9h-17q-19 0-20 1-8 8-15 17-101 123-180 263T473-75t-88 291-55 302-28 291-11 284v60q0 9 5 11 2 1 70 1 43 0 45-1 4-1 5-7t1-38q0-590 100-1010t316-726q10-14 10-18z"/><path id="k" stroke-width="1" d="M413-9h-6q-5 0-19-1t-34 0q-54 0-57 1t-4 4q-2 10-2 132v173q0 302 1 305l4 4q2 1 70 1h41q5 0 5-1 4 0 4-17t1-119V127q0-136-4-136z"/><path id="p" stroke-width="1" d="M31 1143q0 11 18 11h10q13 0 16-2t14-16q101-123 180-263t132-288 88-291T544-8t28-291 11-284v-60q0-9-6-11-2-1-69-1-43 0-45 1-4 1-5 7t-1 38q0 551-86 949t-271 697q-13 22-39 61t-30 45z"/><path id="r" stroke-width="1" d="M56-644h-6q-19 0-19 9 0 3 6 13 32 43 63 95 186 299 271 697t86 949q0 42 5 45 2 1 58 1 55 0 57-1 5-2 5-11t1-60q-2-183-13-341t-43-352-85-360-142-343T89-626q-11-14-14-16t-14-2h-5z"/><path id="q" stroke-width="1" d="M579-9h-6q-5 0-19-1t-34 0q-54 0-57 1t-4 4q-2 10-2 132v173q0 302 1 305l4 4q2 1 70 1h41q5 0 5-1 4 0 4-17t1-119V127q0-136-4-136z"/></defs><g fill="currentColor" stroke="currentColor" stroke-width="0" transform="scale(1 -1)"><use xlink:href="#a"/><use x="1038" xlink:href="#b"/><use x="2094" xlink:href="#c"/><g transform="translate(2484)"><use xlink:href="#d"/><g transform="matrix(.707 0 0 .707 433 -150)"><use xlink:href="#e"/><use x="345" xlink:href="#f"/></g></g><g transform="translate(3553)"><use xlink:href="#g"/><g transform="matrix(.707 0 0 .707 389 -150)"><use xlink:href="#h"/><use x="600" xlink:href="#i"/><use x="1379" xlink:href="#h"/></g></g><use x="5720" xlink:href="#b"/><g transform="translate(6776 4250)"><use y="-1156" xlink:href="#j"/><use transform="matrix(1 0 0 7.1862 0 -6152.766)" xlink:href="#k"/><use y="-7355" xlink:href="#l"/></g><g transform="translate(7804)"><g transform="translate(35 3450)"><use xlink:href="#d"/><g transform="matrix(.707 0 0 .707 433 -150)"><use xlink:href="#m"/><use x="500" xlink:href="#m"/></g></g><g transform="translate(35 2050)"><use xlink:href="#d"/><g transform="matrix(.707 0 0 .707 433 -150)"><use xlink:href="#n"/><use x="500" xlink:href="#m"/></g></g><use x="516" y="650" xlink:href="#o"/><use x="516" y="-750" xlink:href="#o"/><use x="516" y="-2150" xlink:href="#o"/><g transform="translate(0 -3550)"><use xlink:href="#d"/><g transform="matrix(.707 0 0 .707 433 -150)"><use xlink:href="#h"/><use x="600" xlink:href="#m"/></g></g></g><g transform="translate(10116)"><g transform="translate(35 3450)"><use xlink:href="#d"/><g transform="matrix(.707 0 0 .707 433 -150)"><use xlink:href="#m"/><use x="500" xlink:href="#n"/></g></g><g transform="translate(35 2050)"><use xlink:href="#d"/><g transform="matrix(.707 0 0 .707 433 -150)"><use xlink:href="#n"/><use x="500" xlink:href="#n"/></g></g><use x="516" y="650" xlink:href="#o"/><use x="516" y="-750" xlink:href="#o"/><use x="516" y="-2150" xlink:href="#o"/><g transform="translate(0 -3550)"><use xlink:href="#d"/><g transform="matrix(.707 0 0 .707 433 -150)"><use xlink:href="#h"/><use x="600" xlink:href="#n"/></g></g></g><g transform="translate(12428 3450)"><use xlink:href="#o"/><use x="445" xlink:href="#o"/><use x="890" xlink:href="#o"/></g><g transform="translate(12428 2050)"><use xlink:href="#o"/><use x="445" xlink:href="#o"/><use x="890" xlink:href="#o"/></g><g transform="translate(12428 -3550)"><use xlink:href="#o"/><use x="445" xlink:href="#o"/><use x="890" xlink:href="#o"/></g><g transform="translate(14596)"><g transform="translate(35 3450)"><use xlink:href="#d"/><g transform="matrix(.707 0 0 .707 433 -150)"><use xlink:href="#m"/><use x="500" xlink:href="#h"/></g></g><g transform="translate(35 2050)"><use xlink:href="#d"/><g transform="matrix(.707 0 0 .707 433 -150)"><use xlink:href="#n"/><use x="500" xlink:href="#h"/></g></g><use x="552" y="650" xlink:href="#o"/><use x="552" y="-750" xlink:href="#o"/><use x="552" y="-2150" xlink:href="#o"/><g transform="translate(0 -3550)"><use xlink:href="#d"/><g transform="matrix(.707 0 0 .707 433 -150)"><use xlink:href="#h"/><use x="600" xlink:href="#h"/></g></g></g><g transform="translate(16147 4250)"><use y="-1155" xlink:href="#p"/><use transform="matrix(1 0 0 7.1878 0 -6152.746)" xlink:href="#q"/><use y="-7355" xlink:href="#r"/></g></g></svg>